HIERARCHY
ROOT Hips
{
	OFFSET 0.000000 0.000000 0.000000
	CHANNELS 6 Xposition Yposition Zposition Xrotation Yrotation Zrotation
	JOINT LeftUpLeg_virtual
	{
		OFFSET 0.000000 0.000000 0.000000
		CHANNELS 3 Xrotation Yrotation Zrotation
		JOINT LeftUpLeg
		{
			OFFSET 11.394100 -6.187798 -0.413800
			CHANNELS 3 Xrotation Yrotation Zrotation
			JOINT LeftLeg
			{
				OFFSET 0.430247 -32.302673 3.732800
				CHANNELS 3 Xrotation Yrotation Zrotation
				JOINT LeftFoot
				{
					OFFSET -0.430247 -48.264931 -6.423300
					CHANNELS 3 Xrotation Yrotation Zrotation
					JOINT LeftToeBase
					{
						OFFSET 4.230900 -16.068199 23.438400
						CHANNELS 3 Xrotation Yrotation Zrotation
						JOINT LeftToe_End
						{
							OFFSET 4.510700 0.695400 19.974600
							CHANNELS 3 Xrotation Yrotation Zrotation
							End Site
							{
								OFFSET 0 0 0
							}
						}
					}
				}
			}
		}
	}
	JOINT RightUpLeg_virtual
	{
		OFFSET 0.000000 0.000000 0.000000
		CHANNELS 3 Xrotation Yrotation Zrotation
		JOINT RightUpLeg
		{
			OFFSET -11.333700 -6.187798 -0.413800
			CHANNELS 3 Xrotation Yrotation Zrotation
			JOINT RightLeg
			{
				OFFSET -0.430392 -32.302628 3.733000
				CHANNELS 3 Xrotation Yrotation Zrotation
				JOINT RightFoot
				{
					OFFSET 0.430392 -48.264973 -6.423500
					CHANNELS 3 Xrotation Yrotation Zrotation
					JOINT RightToeBase
					{
						OFFSET -4.230900 -16.068199 23.438400
						CHANNELS 3 Xrotation Yrotation Zrotation
						JOINT RightToe_End
						{
							OFFSET -4.510700 0.695400 19.974600
							CHANNELS 3 Xrotation Yrotation Zrotation
							End Site
							{
								OFFSET 0 0 0
							}
						}
					}
				}
			}
		}
	}
	JOINT Spine_virtual
	{
		OFFSET 0.000000 0.000000 0.000000
		CHANNELS 3 Xrotation Yrotation Zrotation
		JOINT Spine
		{
			OFFSET -0.002400 12.777504 0.315300
			CHANNELS 3 Xrotation Yrotation Zrotation
			JOINT Spine1
			{
				OFFSET -0.002067 5.816869 0.032633
				CHANNELS 3 Xrotation Yrotation Zrotation
				JOINT Spine1_split
				{
					OFFSET -0.002067 5.816869 0.032633
					CHANNELS 3 Xrotation Yrotation Zrotation
					JOINT Spine2
					{
						OFFSET -0.002067 5.816869 0.032633
						CHANNELS 3 Xrotation Yrotation Zrotation
						JOINT Neck_virtual
						{
							OFFSET 0.000000 0.000000 0.000000
							CHANNELS 3 Xrotation Yrotation Zrotation
							JOINT Neck
							{
								OFFSET -0.003700 21.199493 -0.826900
								CHANNELS 3 Xrotation Yrotation Zrotation
								JOINT Head
								{
									OFFSET 0.000000 20.442200 4.834800
									CHANNELS 3 Xrotation Yrotation Zrotation
									JOINT HeadTop_End
									{
										OFFSET 0.000000 34.668396 4.968400
										CHANNELS 3 Xrotation Yrotation Zrotation
										End Site
										{
											OFFSET 0 0 0
										}
									}
								}
							}
						}
						JOINT LeftShoulder_virtual
						{
							OFFSET 0.000000 0.000000 0.000000
							CHANNELS 3 Xrotation Yrotation Zrotation
							JOINT LeftShoulder
							{
								OFFSET 3.288150 8.794197 -1.372250
								CHANNELS 3 Xrotation Yrotation Zrotation
								JOINT LeftShoulder_split
								{
									OFFSET 3.288150 8.794197 -1.372250
									CHANNELS 3 Xrotation Yrotation Zrotation
									JOINT LeftArm
									{
										OFFSET 11.953299 -2.279007 -0.146200
										CHANNELS 3 Xrotation Yrotation Zrotation
										JOINT LeftForeArm
										{
											OFFSET 18.448900 0.000000 0.000000
											CHANNELS 3 Xrotation Yrotation Zrotation
											JOINT LeftHand
											{
												OFFSET 29.527798 0.000000 0.000000
												CHANNELS 3 Xrotation Yrotation Zrotation
												End Site
												{
													OFFSET 0 0 0
												}
											}
										}
									}
								}
							}
						}
						JOINT RightShoulder_virtual
						{
							OFFSET 0.000000 0.000000 0.000000
							CHANNELS 3 Xrotation Yrotation Zrotation
							JOINT RightShoulder
							{
								OFFSET -3.249400 8.794197 -1.372250
								CHANNELS 3 Xrotation Yrotation Zrotation
								JOINT RightShoulder_split
								{
									OFFSET -3.249400 8.794197 -1.372250
									CHANNELS 3 Xrotation Yrotation Zrotation
									JOINT RightArm
									{
										OFFSET -11.953299 -2.279007 -0.146200
										CHANNELS 3 Xrotation Yrotation Zrotation
										JOINT RightForeArm
										{
											OFFSET -18.448900 0.000000 0.000000
											CHANNELS 3 Xrotation Yrotation Zrotation
											JOINT RightHand
											{
												OFFSET -29.527802 0.000000 0.000000
												CHANNELS 3 Xrotation Yrotation Zrotation
												End Site
												{
													OFFSET 0 0 0
												}
											}
										}
									}
								}
							}
						}
					}
				}
			}
		}
	}
}
MOTION
Frames: 7
Frame Time: 0.03333333
-1.482886 95.649902 -4.679123 0.000000 0.000000 0.000000 -23.284533 -10.186130 -1.104359 7.906682 23.135326 3.087614 36.602328 14.642049 -8.323902 -23.761000 26.187212 9.621279 -3.003501 -0.742621 -2.518797 0.000000 0.000000 0.000000 -21.365665 -10.829797 -1.411509 15.648783 -11.673551 -0.443951 26.517777 -9.965215 -3.784863 -17.279100 -24.708296 1.641019 -9.962768 -1.084963 0.545428 0.000000 0.000000 0.000000 -21.073075 -9.071522 -1.068771 9.536540 -3.680588 -1.232632 3.301580 -1.043737 0.024326 0.606017 1.736771 -0.064031 0.000000 0.000000 0.000000 3.486729 -2.140295 0.133688 2.188619 2.326153 -4.849549 -4.465631 -1.272408 3.748301 0.000000 0.000000 0.000000 4.030634 -2.520958 0.271270 0.974134 -15.519569 -11.574788 0.743043 -0.677065 -0.514634 -20.617449 0.294837 -38.383816 3.019709 -67.067171 2.674408 0.000000 0.000000 0.000000 3.383987 -2.176900 0.232615 -0.404927 12.749988 16.705791 1.723535 3.324306 -1.610973 -10.444364 -6.352639 62.374483 -0.616895 42.252588 1.700768 0.000000 0.000000 0.000000 
-1.585417 95.435616 -4.765385 0.000000 0.000000 0.000000 -23.433450 -10.824601 -1.373025 7.003971 22.568157 4.252206 38.235928 14.201994 -8.462595 -22.953450 25.597051 9.213801 -2.854475 -0.475908 -3.197704 0.000000 0.000000 0.000000 -21.372309 -10.597453 -1.462975 15.700353 -12.055193 -0.152208 25.861514 -10.209319 -3.839870 -17.763848 -24.662293 1.523380 -10.069928 -0.942101 0.228293 0.000000 0.000000 0.000000 -21.383116 -9.498508 -1.434178 9.757702 -3.882402 -1.282319 3.238430 -1.108479 0.029773 0.617485 1.314541 0.017193 0.000000 0.000000 0.000000 3.587290 -2.147343 0.139243 2.181432 2.248711 -4.666476 -4.553539 -1.386011 3.900222 0.000000 0.000000 0.000000 4.012741 -2.531956 0.298509 0.957598 -15.551210 -11.577109 0.685785 -0.896289 -0.359793 -20.703536 0.137574 -38.578169 3.115913 -67.197614 2.782205 0.000000 0.000000 0.000000 3.334888 -2.216023 0.240868 -0.399768 12.679216 16.691399 1.839873 2.803424 -1.524267 -10.655703 -6.487277 62.355297 -0.626526 42.384029 1.704839 0.000000 0.000000 0.000000 
-1.900123 95.311012 -4.744846 0.000000 0.000000 0.000000 -23.494842 -11.805456 -2.122263 4.341114 21.538272 6.601754 41.406844 13.156159 -8.561136 -21.269361 23.920890 8.317267 -2.541241 -0.214728 -4.220091 0.000000 0.000000 0.000000 -21.552423 -10.769065 -2.028384 16.078137 -12.746795 0.404038 24.706464 -10.370451 -3.748032 -18.698601 -24.395274 1.004924 -9.209720 -0.755816 -0.086012 0.000000 0.000000 0.000000 -21.621078 -10.590982 -2.289705 9.916520 -4.061342 -1.208724 3.183707 -1.179006 0.037743 0.643147 1.053185 0.232467 0.000000 0.000000 0.000000 3.706140 -2.153962 0.125813 2.084800 2.100248 -4.354871 -4.768140 -1.675152 4.262276 0.000000 0.000000 0.000000 4.016279 -2.536051 0.308358 0.943551 -15.486030 -11.521288 0.599193 -1.058345 -0.311676 -21.069933 0.093034 -38.768608 3.192485 -67.184807 2.899774 0.000000 0.000000 0.000000 3.280899 -2.277534 0.220355 -0.406207 12.609661 16.630114 1.888716 2.500700 -1.389247 -10.900411 -6.638405 62.292760 -0.622479 42.495531 1.722510 0.000000 0.000000 0.000000 
-2.163402 95.309624 -4.648716 0.000000 0.000000 0.000000 -23.567230 -13.003939 -3.205036 0.554914 20.038764 9.447466 45.053581 11.682945 -8.444806 -19.322337 21.174881 7.110452 -2.766116 -0.042944 -4.897696 0.000000 0.000000 0.000000 -21.921277 -11.537384 -3.009267 16.577789 -13.528693 0.958750 23.497096 -10.282099 -3.506714 -19.479445 -23.962370 0.488155 -7.949257 -0.565285 -0.354938 0.000000 0.000000 0.000000 -21.816749 -12.285039 -3.451528 10.018946 -4.174349 -1.012813 3.162758 -1.215980 0.042539 0.817514 1.002406 0.375634 0.000000 0.000000 0.000000 3.795918 -2.155711 0.098452 1.927559 1.922374 -4.013574 -5.069862 -2.056829 4.696114 0.000000 0.000000 0.000000 4.025861 -2.532837 0.302042 0.931605 -15.355775 -11.404259 0.420692 -1.156155 -0.382224 -21.554042 0.206578 -38.884687 3.184460 -67.015603 2.952478 0.000000 0.000000 0.000000 3.239730 -2.337141 0.185414 -0.418946 12.586098 16.546232 1.868980 2.469852 -1.338002 -11.084051 -6.783997 62.194849 -0.596998 42.527251 1.742835 0.000000 0.000000 0.000000 
-2.290103 95.421959 -4.325764 0.000000 0.000000 0.000000 -23.760336 -14.361651 -4.420856 -3.340902 17.995438 11.855534 48.071606 10.070103 -7.966757 -17.749140 17.576293 5.656156 -3.619103 -0.002867 -4.784135 0.000000 0.000000 0.000000 -22.437639 -12.907368 -4.194738 16.969448 -14.176925 1.187729 22.584763 -9.677541 -3.161447 -19.463018 -23.398468 0.623658 -7.205967 -0.412628 -0.561252 0.000000 0.000000 0.000000 -22.061038 -14.484591 -4.711519 10.116886 -4.225567 -0.776039 3.180135 -1.215296 0.038197 0.972369 1.029323 0.357632 0.000000 0.000000 0.000000 3.823114 -2.156536 0.071787 1.794544 1.808000 -3.740815 -5.372741 -2.354546 5.053152 0.000000 0.000000 0.000000 4.033699 -2.526863 0.287475 0.927314 -15.217098 -11.233758 0.232174 -1.199232 -0.549920 -21.945490 0.414263 -38.895950 3.063915 -66.805438 2.892293 0.000000 0.000000 0.000000 3.215661 -2.377614 0.149901 -0.414641 12.598577 16.450787 1.777627 2.567578 -1.379571 -11.139250 -6.887540 62.056920 -0.548229 42.453106 1.750221 0.000000 0.000000 0.000000 
-2.211456 95.553894 -3.752827 0.000000 0.000000 0.000000 -24.017273 -15.929618 -5.556962 -6.807570 15.622413 13.193330 50.005201 8.535934 -7.158878 -16.550923 13.667364 3.731736 -4.232288 -0.105157 -4.085192 0.000000 0.000000 0.000000 -22.977043 -14.813377 -5.334916 17.030566 -14.511888 0.915593 22.191442 -8.510615 -2.803113 -18.585587 -22.723986 1.448781 -7.142955 -0.300759 -0.678014 0.000000 0.000000 0.000000 -22.482582 -17.028266 -5.886797 10.236685 -4.230711 -0.578150 3.226074 -1.190039 0.032331 0.909264 1.189029 0.273517 0.000000 0.000000 0.000000 3.788884 -2.164430 0.056341 1.748188 1.805770 -3.620860 -5.584691 -2.407382 5.209151 0.000000 0.000000 0.000000 4.038870 -2.524911 0.267160 0.930839 -15.124523 -11.039390 0.111755 -1.200997 -0.689828 -22.084833 0.643919 -38.829837 2.852809 -66.659436 2.719829 0.000000 0.000000 0.000000 3.204878 -2.393319 0.134136 -0.379255 12.641429 16.367831 1.609761 2.694253 -1.446395 -11.028635 -6.958280 61.899491 -0.477911 42.355840 1.732276 0.000000 0.000000 0.000000 
-1.979903 95.654724 -2.969517 0.000000 0.000000 0.000000 -24.358587 -17.958835 -6.579355 -9.499413 13.136926 13.327368 50.647448 7.221368 -6.005889 -15.284037 9.984736 1.259634 -4.451052 -0.270589 -2.890033 0.000000 0.000000 0.000000 -23.544489 -17.270488 -6.341843 16.587321 -14.461129 0.162936 22.229879 -6.971060 -2.504918 -17.400102 -21.921649 2.418921 -6.999946 -0.240258 -0.603943 0.000000 0.000000 0.000000 -23.150962 -19.704382 -6.902049 10.401680 -4.243521 -0.478841 3.279723 -1.175046 0.027703 0.806766 1.278725 0.101434 0.000000 0.000000 0.000000 3.726307 -2.178388 0.056080 1.852386 1.900377 -3.667947 -5.653993 -2.211515 5.133048 0.000000 0.000000 0.000000 4.025527 -2.534326 0.258430 0.942154 -15.085202 -10.844614 0.004712 -1.195678 -0.758878 -21.959924 0.813642 -38.758267 2.576631 -66.617417 2.460147 0.000000 0.000000 0.000000 3.199977 -2.394191 0.152160 -0.304316 12.658413 16.300603 1.427584 2.828679 -1.492039 -10.761060 -7.021209 61.742554 -0.395975 42.298142 1.681876 0.000000 0.000000 0.000000 
